<svg width="190" height="25" viewBox="0 0 190 25" fill="none" xmlns="http://www.w3.org/2000/svg">
<path d="M1.52186 0.342795V10.0029H1.96684C2.00121 9.44913 2.08684 8.88944 2.22965 8.33008C2.36652 7.76478 2.54339 7.22263 2.7662 6.70296C2.98306 6.18891 3.2343 5.7211 3.51961 5.2983C3.7996 4.88175 4.10772 4.54456 4.43365 4.28175C4.67333 4.08238 4.98145 3.89365 5.36394 3.71115C5.74643 3.52834 6.2033 3.37991 6.73422 3.26585C7.27108 3.14585 7.88201 3.08868 8.57824 3.08305H15.8406L0.5625 24.1162L0.630934 24.3219H22.7263V13.2228H22.281C22.2467 13.8512 22.1835 14.4902 22.0923 15.1355C21.9954 15.7808 21.8641 16.409 21.6929 17.0196C21.5157 17.6305 21.2929 18.1958 21.0192 18.7211C20.7451 19.2408 20.4139 19.6917 20.0198 20.0742C19.5233 20.5367 18.998 20.8735 18.4499 21.0907C17.8961 21.3076 17.348 21.4444 16.794 21.5016C16.2462 21.5644 15.7209 21.587 15.224 21.5813H7.68764L22.8976 0.548112L22.7263 0.342795H1.52186ZM29.6118 20.4854C29.6174 20.7648 29.6061 21.0504 29.5721 21.3473C29.5433 21.6441 29.4633 21.941 29.3437 22.2266C29.2237 22.5122 29.0236 22.7804 28.7555 23.0204C28.4984 23.2313 28.2134 23.3972 27.8875 23.5057C27.5681 23.62 27.2368 23.6997 26.8943 23.7453C26.5515 23.791 26.2262 23.825 25.9122 23.8425L25.33 23.8766V24.3219H49.3775V13.9078H48.9322L48.8297 14.9702C48.7782 15.5352 48.6982 16.0949 48.5957 16.6655C48.4869 17.2308 48.3157 17.7789 48.0704 18.3098C47.8304 18.8467 47.4766 19.3376 47.0141 19.8001C46.8713 19.9486 46.6601 20.1257 46.386 20.3251C46.1117 20.5251 45.7639 20.7195 45.3354 20.9076C44.9073 21.102 44.3933 21.2617 43.7939 21.3876C43.1942 21.5129 42.498 21.5757 41.7043 21.5813H33.8595V4.17925C33.8538 3.97925 33.8651 3.72833 33.8998 3.43146C33.9282 3.1346 34.0079 2.82618 34.1279 2.5065C34.2538 2.18651 34.4476 1.90152 34.716 1.64434C34.9616 1.42747 35.247 1.26746 35.5723 1.15933C35.9038 1.04496 36.2403 0.964981 36.5888 0.919044C36.9313 0.873733 37.2569 0.839341 37.5594 0.822153L38.1419 0.788097V0.342795H25.33V0.788097L25.9122 0.822153C26.215 0.839341 26.5403 0.873733 26.8887 0.919044C27.2309 0.964981 27.5681 1.04496 27.899 1.15933C28.2246 1.26746 28.5102 1.42747 28.7555 1.64434C29.0236 1.90152 29.2237 2.18651 29.3437 2.5065C29.4633 2.82618 29.5433 3.1346 29.5721 3.43146C29.6061 3.72833 29.6174 3.97925 29.6118 4.17925V20.4854ZM62.0182 0L54.5502 18.0189C54.2993 18.6067 54.0708 19.1092 53.8652 19.5204C53.6596 19.9314 53.4827 20.2742 53.3287 20.5479C53.1743 20.8163 53.0431 21.0335 52.9406 21.2045C52.8318 21.3876 52.6777 21.6101 52.4893 21.8613C52.3009 22.1123 52.0612 22.3694 51.77 22.6319C51.4843 22.8891 51.1422 23.1232 50.7365 23.3288C50.3369 23.5341 49.8744 23.6825 49.3435 23.7741L48.6925 23.8766V24.3219H60.9907V23.8766L60.1341 23.8081C59.7976 23.7853 59.4376 23.7281 59.0551 23.6369C58.6726 23.5456 58.3129 23.4028 57.9701 23.2144C57.6279 23.026 57.3423 22.7804 57.1198 22.4719C56.9367 22.2154 56.8114 21.9129 56.7373 21.5588C56.6686 21.2104 56.6455 20.8504 56.6802 20.4798C56.7083 20.1145 56.7883 19.7717 56.9142 19.4576L58.2161 16.2718H66.9855L68.5271 20.0401C68.6183 20.251 68.6926 20.4798 68.7611 20.7307C68.8295 20.9876 68.8636 21.2335 68.8695 21.4788C68.8636 21.9869 68.7667 22.3922 68.5727 22.6891C68.3842 22.9916 68.1386 23.2144 67.8421 23.3628C67.6874 23.4541 67.4993 23.5282 67.2824 23.5853C67.0652 23.6425 66.803 23.6941 66.483 23.7338C66.1634 23.7741 65.7693 23.8081 65.3071 23.8425L64.7931 23.8766V24.3219H78.2218V23.8766L77.6734 23.8425C77.2681 23.8194 76.8681 23.7509 76.4743 23.6369C76.0806 23.5281 75.7206 23.3853 75.3897 23.2144C75.0528 23.0432 74.7785 22.8488 74.556 22.6438C74.3563 22.4438 74.1619 22.181 73.9794 21.8613C73.791 21.536 73.5854 21.1076 73.3513 20.571C73.1229 20.0401 72.8372 19.3608 72.5007 18.5326L64.9303 0H62.0182ZM66.1293 13.8737H59.0723L62.5666 5.44673H62.635L66.1293 13.8737ZM88.5672 3.08305H91.1021C91.3018 3.07743 91.5534 3.08868 91.8558 3.1118C92.1583 3.13461 92.4836 3.18024 92.8377 3.26023C93.1917 3.33429 93.5455 3.45398 93.8995 3.61429C94.2592 3.77991 94.5904 4.00239 94.9045 4.28175C95.1901 4.54456 95.447 4.89298 95.681 5.33266C95.9091 5.77202 96.1151 6.25763 96.286 6.78856C96.4632 7.32511 96.6057 7.86791 96.7145 8.41571C96.8226 8.96382 96.8913 9.48319 96.9257 9.96881H97.371V0.342795H75.5156V9.96881H75.9609C75.995 9.48319 76.0691 8.96382 76.1778 8.41571C76.2806 7.86791 76.4231 7.32511 76.6 6.78856C76.7715 6.25763 76.9768 5.77202 77.2112 5.33266C77.4396 4.89298 77.6965 4.54456 77.9818 4.28175C78.2959 4.00239 78.6271 3.77991 78.9865 3.61429C79.3408 3.45398 79.6949 3.33429 80.049 3.26023C80.4027 3.18024 80.7283 3.13461 81.0308 3.1118C81.3333 3.08868 81.5845 3.07743 81.7845 3.08305H84.3195V20.4854C84.3251 20.6851 84.3138 20.9363 84.2792 21.2335C84.2507 21.5304 84.171 21.8385 84.051 22.1582C83.9313 22.4719 83.7314 22.7632 83.4629 23.0204C83.2173 23.2313 82.932 23.3972 82.6067 23.5057C82.2751 23.62 81.9386 23.6941 81.5958 23.7453C81.2477 23.791 80.922 23.8194 80.6196 23.8425L80.0371 23.8766V24.3219H92.8489V23.8766L92.2668 23.8425C91.9639 23.8194 91.6387 23.791 91.2962 23.7453C90.9481 23.6941 90.6109 23.62 90.2799 23.5057C89.9543 23.3972 89.6693 23.2313 89.4234 23.0204C89.1553 22.7632 88.9609 22.4719 88.8353 22.1582C88.7156 21.8385 88.6356 21.5304 88.6068 21.2335C88.5728 20.9363 88.5615 20.6851 88.5672 20.4854V3.08305ZM132.21 0.342795H121.933L115.527 16.6146H115.424L109.018 0.342795H98.3304V0.788097L98.9129 0.822153C99.2153 0.839341 99.5406 0.873733 99.8891 0.919044C100.231 0.964981 100.568 1.04496 100.899 1.15933C101.225 1.26746 101.511 1.42747 101.756 1.64434C102.024 1.90152 102.224 2.18651 102.344 2.5065C102.464 2.82618 102.544 3.1346 102.572 3.43146C102.606 3.72833 102.618 3.97925 102.612 4.17925V19.8001C102.618 20.0629 102.601 20.3823 102.567 20.7592C102.532 21.136 102.452 21.5185 102.327 21.9013C102.207 22.2838 102.013 22.6091 101.756 22.8835C101.533 23.1004 101.248 23.2772 100.911 23.4144C100.574 23.5513 100.226 23.6541 99.8719 23.7225C99.5122 23.791 99.1925 23.8309 98.9129 23.8425L98.3304 23.8766V24.3219H109.875V23.8766L109.292 23.8425C109.013 23.8309 108.693 23.791 108.333 23.7225C107.979 23.6541 107.631 23.5513 107.294 23.4144C106.957 23.2772 106.672 23.1004 106.449 22.8835C106.244 22.6719 106.084 22.4266 105.969 22.141C105.85 21.8557 105.764 21.5644 105.713 21.2616C105.661 20.9648 105.627 20.6851 105.61 20.4282C105.598 20.1654 105.593 19.9601 105.593 19.8001V3.66553H105.695L113.848 24.3219H115.424L123.577 3.66553H123.68V20.4854C123.686 20.6851 123.674 20.9363 123.64 21.2335C123.612 21.5304 123.537 21.8385 123.412 22.1582C123.292 22.4719 123.092 22.7632 122.823 23.0204C122.578 23.2313 122.293 23.3972 121.967 23.5057C121.636 23.62 121.299 23.6941 120.957 23.7453C120.608 23.791 120.283 23.8194 119.98 23.8425L119.398 23.8766V24.3219H132.21V23.8766L131.627 23.8425C131.325 23.8194 131 23.791 130.657 23.7453C130.308 23.6941 129.972 23.62 129.646 23.5057C129.315 23.3972 129.03 23.2313 128.784 23.0204C128.516 22.7632 128.322 22.4719 128.196 22.1582C128.076 21.8385 127.996 21.5304 127.968 21.2335C127.939 20.9363 127.922 20.6851 127.928 20.4854V4.17925C127.922 3.97925 127.939 3.72833 127.968 3.43146C127.996 3.1346 128.076 2.82618 128.196 2.5065C128.322 2.18651 128.516 1.90152 128.784 1.64434C129.03 1.42747 129.315 1.26746 129.646 1.15933C129.972 1.04496 130.308 0.964981 130.657 0.919044C131 0.873733 131.325 0.839341 131.627 0.822153L132.21 0.788097V0.342795ZM144.782 0L137.314 18.0189C137.063 18.6067 136.834 19.1092 136.629 19.5204C136.423 19.9314 136.246 20.2742 136.092 20.5479C135.938 20.8163 135.807 21.0335 135.704 21.2045C135.595 21.3876 135.441 21.6101 135.253 21.8613C135.064 22.1123 134.825 22.3694 134.534 22.6319C134.248 22.8891 133.906 23.1232 133.5 23.3288C133.1 23.5341 132.638 23.6825 132.107 23.7741L131.456 23.8766V24.3219H143.754V23.8766L142.898 23.8081C142.561 23.7853 142.201 23.7281 141.819 23.6369C141.436 23.5456 141.076 23.4028 140.734 23.2144C140.391 23.026 140.106 22.7804 139.883 22.4719C139.7 22.2154 139.575 21.9129 139.501 21.5588C139.432 21.2104 139.409 20.8504 139.444 20.4798C139.472 20.1145 139.552 19.7717 139.678 19.4576L140.98 16.2718H149.749L151.291 20.0401C151.382 20.251 151.456 20.4798 151.525 20.7307C151.593 20.9876 151.627 21.2335 151.633 21.4788C151.627 21.9869 151.53 22.3922 151.336 22.6891C151.148 22.9916 150.902 23.2144 150.606 23.3628C150.451 23.4541 150.263 23.5282 150.046 23.5853C149.829 23.6425 149.567 23.6941 149.247 23.7338C148.927 23.7741 148.533 23.8081 148.071 23.8425L147.557 23.8766V24.3219H160.985V23.8766L160.437 23.8425C160.032 23.8194 159.632 23.7509 159.238 23.6369C158.844 23.5281 158.484 23.3853 158.153 23.2144C157.816 23.0432 157.542 22.8488 157.32 22.6438C157.12 22.4438 156.926 22.181 156.743 21.8613C156.555 21.536 156.349 21.1076 156.115 20.571C155.886 20.0401 155.601 19.3608 155.264 18.5326L147.694 0H144.782ZM148.893 13.8737H141.836L145.33 5.44673H145.399L148.893 13.8737ZM159.752 0.342795V0.788097L160.403 0.92527C160.82 1.02214 161.248 1.20466 161.687 1.46746C162.127 1.72996 162.55 2.03243 162.955 2.38086C163.36 2.72929 163.72 3.07743 164.034 3.42554L171.947 12.2297L165.267 20.0058C165.153 20.1486 164.988 20.3195 164.782 20.5251C164.576 20.7307 164.348 20.9479 164.108 21.1704C163.863 21.3932 163.635 21.5988 163.412 21.787C163.195 21.9757 163.012 22.1241 162.869 22.2323C162.332 22.6263 161.75 22.9688 161.122 23.2488C160.5 23.5281 159.883 23.7397 159.272 23.8766V24.3219H172.735V23.8766L171.913 23.8081C171.268 23.751 170.771 23.6766 170.417 23.5913C170.069 23.4997 169.835 23.4369 169.72 23.3972C169.475 23.3056 169.247 23.1916 169.03 23.0375C168.813 22.8891 168.63 22.7004 168.493 22.4607C168.356 22.2266 168.288 21.9354 168.282 21.5813C168.288 21.3132 168.362 21.0335 168.499 20.7367C168.636 20.4398 168.79 20.1654 168.967 19.9145C169.144 19.6632 169.292 19.4632 169.412 19.3204L173.763 14.2506L178.456 19.4232C178.701 19.6861 178.93 19.9601 179.147 20.2398C179.364 20.5251 179.546 20.8107 179.684 21.1076C179.82 21.3988 179.889 21.6957 179.895 21.9926C179.889 22.3294 179.798 22.6091 179.615 22.8319C179.438 23.0488 179.198 23.2257 178.901 23.3628C178.587 23.5169 178.222 23.6313 177.817 23.7056C177.411 23.7797 177.006 23.825 176.606 23.8425L175.613 23.8766V24.3219H190V23.8766C189.624 23.8309 189.212 23.7338 188.773 23.5853C188.327 23.4369 187.859 23.2029 187.363 22.8835C186.74 22.4494 186.135 21.9298 185.558 21.3132C184.982 20.702 184.371 20.0282 183.731 19.2864L176.435 11.1331L181.06 5.78953C181.39 5.40704 181.739 5.00144 182.104 4.56739C182.475 4.13334 182.869 3.71114 183.292 3.29991C183.709 2.88898 184.165 2.51804 184.656 2.19211C184.959 1.99837 185.29 1.80963 185.661 1.63308C186.033 1.45621 186.421 1.30777 186.826 1.17621C187.226 1.04496 187.62 0.947789 188.013 0.890603L188.698 0.788097V0.342795H174.927V0.788097L175.784 0.856546C176.412 0.907795 176.926 0.999014 177.326 1.12464C177.725 1.25057 178.033 1.40464 178.25 1.57589C178.502 1.76432 178.684 1.96994 178.787 2.19837C178.89 2.43243 178.941 2.689 178.936 2.98024C178.93 3.32305 178.884 3.62551 178.787 3.89926C178.696 4.168 178.581 4.40208 178.445 4.6077C178.307 4.81332 178.176 4.99017 178.045 5.1386L174.619 9.14665L169.755 3.73395C169.572 3.52833 169.441 3.34586 169.372 3.18586C169.304 3.02618 169.27 2.87775 169.275 2.74056C169.27 2.47776 169.332 2.2212 169.475 1.96995C169.612 1.7184 169.863 1.4959 170.234 1.30185C170.411 1.22154 170.617 1.14746 170.857 1.08496C171.097 1.02215 171.342 0.970602 171.588 0.930915C171.833 0.896541 172.056 0.868108 172.256 0.856546L173.043 0.788097V0.342795H159.752Z" fill="#1F1C21"/>
</svg>
